<svg width="380" height="347" viewBox="0 0 380 347" fill="none" xmlns="http://www.w3.org/2000/svg">
<path d="M190 346.963C183.585 347.156 177.339 344.883 172.544 340.611C167.749 336.338 164.768 330.389 164.214 323.985L161.453 301.228C133.845 293.348 117.666 272.886 113.498 240.396L88.6501 48.6655C83.3107 47.8065 77.9064 47.4179 72.4993 47.5041C64.5185 47.4384 56.5666 48.4711 48.8666 50.5734V341.35H0V107.617C0 75.9015 14.1906 53.5044 40.1148 44.186V29.1163C40.1148 11.6963 50.6611 0 66.3702 0C82.0793 0 91.9355 9.78839 94.4754 27.6508L96.408 41.6145C124.706 49.6333 141.465 72.4452 146.269 109.47L169.211 294.288C182.944 296.942 197.056 296.942 210.789 294.288L233.731 109.497C238.535 72.4452 255.294 49.6333 283.592 41.6145L285.525 27.6508C288.064 9.87134 298.031 0 313.63 0C329.228 0 339.885 11.6963 339.885 29.1163V44.186C365.809 53.5044 380 75.9015 380 107.617V341.35H331.189V50.5457C323.488 48.4455 315.537 47.4128 307.556 47.4765C302.149 47.3902 296.745 47.7788 291.405 48.6378L266.558 240.396C262.472 272.305 245.907 293.265 218.602 301.228L215.841 324.04C215.415 330.499 212.462 336.528 207.624 340.82C202.786 345.112 196.453 347.319 190 346.963ZM170.371 303.44L172.855 323.045C173.153 327.324 175.117 331.315 178.323 334.159C181.53 337.003 185.723 338.473 190 338.253C192.137 338.406 194.283 338.129 196.311 337.437C198.339 336.745 200.207 335.652 201.806 334.224C203.405 332.795 204.701 331.06 205.618 329.121C206.535 327.182 207.054 325.078 207.145 322.934L209.629 303.302C196.63 305.44 183.37 305.44 170.371 303.302V303.44ZM339.885 332.778H371.303V107.617C371.303 80.7404 360.481 62.1867 339.885 53.532V332.778ZM8.58617 332.778H40.1148V53.532C19.519 62.1867 8.6966 80.7404 8.6966 107.617L8.58617 332.778ZM97.678 51.0434L122.001 239.263C125.507 266.499 138.317 284.112 160.155 291.799L137.544 110.465C133.486 78.5007 120.4 58.9792 97.678 51.0434ZM282.322 51.0434C259.6 58.9792 246.431 78.5007 242.373 110.493L219.872 291.689C241.683 284.002 254.52 266.388 257.999 239.152L282.322 51.0434ZM48.8114 41.421C56.5467 39.5363 64.4833 38.6077 72.444 38.6559C77.4372 38.6036 82.4279 38.8992 87.3801 39.5407L85.8617 28.6739C83.9567 15.3462 77.4135 8.59941 66.3702 8.59941C55.3269 8.59941 48.8114 16.4246 48.8114 29.0057V41.421ZM307.556 38.6559C315.517 38.6077 323.453 39.5363 331.189 41.421V29.1163C331.189 16.5352 324.452 8.71001 313.63 8.71001C302.807 8.71001 296.043 15.4568 294.138 28.7845L292.62 39.6513C297.572 39.0098 302.563 38.7142 307.556 38.7665V38.6559Z" fill="#2D2D2D"/>
</svg>
