<svg width="191" height="174" viewBox="0 0 191 174" fill="none" xmlns="http://www.w3.org/2000/svg">
<g style="mix-blend-mode:difference">
<mask id="mask0_56_137" style="mask-type:alpha" maskUnits="userSpaceOnUse" x="0" y="0" width="191" height="174">
<path d="M95.5 173.981C92.2755 174.078 89.136 172.939 86.7259 170.796C84.3158 168.653 82.8177 165.671 82.5391 162.459L81.1514 151.048C67.2746 147.097 59.1428 136.836 57.0474 120.545L44.5583 24.4029C41.8746 23.9721 39.1582 23.7773 36.4404 23.8205C32.4291 23.7875 28.4322 24.3054 24.5619 25.3596V171.167H0V53.9636C0 38.0601 7.13266 26.8293 20.163 22.1567V14.6001C20.163 5.86501 25.4639 0 33.3598 0C41.2557 0 46.2097 4.9083 47.4863 13.8653L48.4577 20.8672C62.6814 24.8881 71.1046 36.327 73.5192 54.8926L85.0508 147.568C91.9532 148.899 99.0467 148.899 105.949 147.568L117.481 54.9064C119.895 36.327 128.319 24.8881 142.542 20.8672L143.514 13.8653C144.79 4.9499 149.8 0 157.64 0C165.481 0 170.837 5.86501 170.837 14.6001V22.1567C183.867 26.8293 191 38.0601 191 53.9636V171.167H166.466V25.3457C162.595 24.2926 158.599 23.7747 154.587 23.8067C151.87 23.7634 149.153 23.9583 146.469 24.389L133.98 120.545C131.927 136.545 123.6 147.055 109.876 151.048L108.489 162.487C108.274 165.726 106.79 168.749 104.358 170.901C101.927 173.053 98.7435 174.16 95.5 173.981ZM85.6336 152.157L86.8825 161.988C87.0324 164.134 88.0193 166.135 89.6309 167.561C91.2425 168.987 93.35 169.724 95.5 169.614C96.5741 169.691 97.6527 169.552 98.672 169.205C99.6913 168.858 100.631 168.31 101.434 167.593C102.238 166.877 102.889 166.007 103.35 165.035C103.811 164.062 104.072 163.007 104.117 161.932L105.366 152.088C98.8326 153.16 92.1674 153.16 85.6336 152.088V152.157ZM170.837 166.868H186.629V53.9636C186.629 40.4866 181.189 31.183 170.837 26.8431V166.868ZM4.31568 166.868H20.163V26.8431C9.81088 31.183 4.37118 40.4866 4.37118 53.9636L4.31568 166.868ZM49.096 25.5953L61.3215 119.976C63.0838 133.633 69.5227 142.466 80.4992 146.32L69.1341 55.3917C67.0942 39.3635 60.5166 29.5746 49.096 25.5953ZM141.904 25.5953C130.483 29.5746 123.864 39.3635 121.824 55.4056L110.515 146.265C121.477 142.41 127.93 133.578 129.678 119.921L141.904 25.5953ZM24.5341 20.7702C28.4221 19.8251 32.4114 19.3595 36.4127 19.3836C38.9224 19.3574 41.4309 19.5057 43.92 19.8273L43.1568 14.3783C42.1993 7.69522 38.9105 4.3121 33.3598 4.3121C27.8091 4.3121 24.5341 8.23596 24.5341 14.5447V20.7702ZM154.587 19.3836C158.589 19.3595 162.578 19.8251 166.466 20.7702V14.6001C166.466 8.29143 163.08 4.36756 157.64 4.36756C152.201 4.36756 148.801 7.75068 147.843 14.4337L147.08 19.8828C149.569 19.5611 152.078 19.4129 154.587 19.4391V19.3836Z" fill="#D9D9D9"/>
</mask>
<g mask="url(#mask0_56_137)">
<g filter="url(#filter0_f_56_137)">
<path d="M352.859 770.244C455.859 809.744 443.359 756.744 526.859 715.244C531.859 706.41 548.059 680.844 572.859 649.244C603.859 609.744 636.359 537.244 730.859 392.244C825.359 247.244 711.359 165.744 675.859 -23.2563C640.359 -212.256 526.859 -273.756 432.359 -304.256C337.859 -334.756 210.359 -348.256 1.35923 -304.256C-207.641 -260.256 -104.141 -218.756 -130.141 -133.256C-156.141 -47.7563 -156.641 53.7437 -150.141 200.744C-143.641 347.744 -71.1408 253.744 62.8592 328.244C196.859 402.744 146.359 313.244 221.359 367.744C296.359 422.244 221.359 389.744 221.359 488.744C221.359 587.744 207.859 598.744 221.359 715.244C234.859 831.744 249.859 730.744 352.859 770.244Z" fill="url(#paint0_linear_56_137)"/>
</g>
<g filter="url(#filter1_f_56_137)">
<path d="M180.182 187.795C137.782 263.395 30.8487 260.295 -17.318 249.295C-50.318 249.295 -143.618 236.995 -252.818 187.795C-389.318 126.295 -358.318 75.7949 -371.318 -75.7051C-384.318 -227.205 -351.318 -264.705 -166.818 -315.205C17.6821 -365.705 15.6821 -343.705 147.182 -315.205C278.682 -286.705 202.182 -201.205 303.182 -75.705C404.182 49.795 233.182 93.295 180.182 187.795Z" fill="url(#paint1_linear_56_137)"/>
</g>
<g filter="url(#filter2_f_56_137)">
<ellipse cx="-411.5" cy="519.651" rx="222" ry="264.5" transform="rotate(-180 -411.5 519.651)" fill="url(#paint2_linear_56_137)"/>
</g>
<g filter="url(#filter3_f_56_137)">
<path d="M208.366 467.232C168.866 581.732 100.866 530.732 -70.6342 537.732L-92.6343 537.732C-110.134 537.732 -158.734 523.632 -213.134 467.232C-281.134 396.732 -275.134 416.732 -250.634 280.232C-226.134 143.732 -173.634 205.732 -92.6342 142.232C-11.6342 78.732 113.866 78.232 208.366 192.732C302.866 307.232 228.366 223.232 247.866 302.232C267.366 381.232 247.866 352.732 208.366 467.232Z" fill="url(#paint3_linear_56_137)"/>
</g>
<g filter="url(#filter4_f_56_137)">
<path d="M-566.928 689.834C-689.928 632.334 -623.928 610.834 -676.928 531.834C-704.762 504.667 -755.128 413.934 -733.928 268.334C-707.428 86.3335 -689.928 -2.16653 -676.928 -13.1665C-663.928 -24.1665 -790.928 -325.167 -676.928 -419.667C-562.928 -514.167 -617.428 -452.667 -346.928 -419.666C-76.4282 -386.666 -212.928 -393.166 -120.928 -303.166C-28.9283 -213.166 -118.428 -193.166 -149.428 -2.16648C-180.428 188.834 -136.428 59.3335 -107.428 243.834C-78.4284 428.334 -100.928 347.334 -164.928 430.834C-228.928 514.334 -232.928 470.334 -322.928 577.834C-412.928 685.334 -342.928 606.334 -371.428 689.834C-399.928 773.334 -443.928 747.334 -566.928 689.834Z" fill="url(#paint4_linear_56_137)"/>
</g>
</g>
</g>
<defs>
<filter id="filter0_f_56_137" x="-353.625" y="-532.419" width="1321.13" height="1516.57" filterUnits="userSpaceOnUse" color-interpolation-filters="sRGB">
<feFlood flood-opacity="0" result="BackgroundImageFix"/>
<feBlend mode="normal" in="SourceGraphic" in2="BackgroundImageFix" result="shape"/>
<feGaussianBlur stdDeviation="100" result="effect1_foregroundBlur_56_137"/>
</filter>
<filter id="filter1_f_56_137" x="-573.831" y="-545.384" width="1108.33" height="1000.53" filterUnits="userSpaceOnUse" color-interpolation-filters="sRGB">
<feFlood flood-opacity="0" result="BackgroundImageFix"/>
<feBlend mode="normal" in="SourceGraphic" in2="BackgroundImageFix" result="shape"/>
<feGaussianBlur stdDeviation="100" result="effect1_foregroundBlur_56_137"/>
</filter>
<filter id="filter2_f_56_137" x="-833.5" y="55.1506" width="844" height="929" filterUnits="userSpaceOnUse" color-interpolation-filters="sRGB">
<feFlood flood-opacity="0" result="BackgroundImageFix"/>
<feBlend mode="normal" in="SourceGraphic" in2="BackgroundImageFix" result="shape"/>
<feGaussianBlur stdDeviation="100" result="effect1_foregroundBlur_56_137"/>
</filter>
<filter id="filter3_f_56_137" x="-467.615" y="-100.603" width="925.115" height="843.754" filterUnits="userSpaceOnUse" color-interpolation-filters="sRGB">
<feFlood flood-opacity="0" result="BackgroundImageFix"/>
<feBlend mode="normal" in="SourceGraphic" in2="BackgroundImageFix" result="shape"/>
<feGaussianBlur stdDeviation="100" result="effect1_foregroundBlur_56_137"/>
</filter>
<filter id="filter4_f_56_137" x="-939" y="-670" width="1058.5" height="1613.15" filterUnits="userSpaceOnUse" color-interpolation-filters="sRGB">
<feFlood flood-opacity="0" result="BackgroundImageFix"/>
<feBlend mode="normal" in="SourceGraphic" in2="BackgroundImageFix" result="shape"/>
<feGaussianBlur stdDeviation="100" result="effect1_foregroundBlur_56_137"/>
</filter>
<linearGradient id="paint0_linear_56_137" x1="560.501" y1="211.651" x2="26.5005" y2="86.6506" gradientUnits="userSpaceOnUse">
<stop stop-color="#DFF1F2"/>
<stop offset="1" stop-color="#C3E1F1"/>
</linearGradient>
<linearGradient id="paint1_linear_56_137" x1="-72.4996" y1="196.151" x2="193.501" y2="-141.849" gradientUnits="userSpaceOnUse">
<stop stop-color="#D16852"/>
<stop offset="1" stop-color="#D76F3A"/>
</linearGradient>
<linearGradient id="paint2_linear_56_137" x1="-411.5" y1="255.151" x2="-411.5" y2="784.151" gradientUnits="userSpaceOnUse">
<stop stop-color="#DBAB9F"/>
<stop offset="1" stop-color="#A67ED3"/>
</linearGradient>
<linearGradient id="paint3_linear_56_137" x1="119" y1="497.151" x2="-32.9995" y2="253.651" gradientUnits="userSpaceOnUse">
<stop stop-color="#ACEEF5"/>
<stop offset="1" stop-color="#76D2F7"/>
</linearGradient>
<linearGradient id="paint4_linear_56_137" x1="-589" y1="-401.349" x2="-142.5" y2="306.151" gradientUnits="userSpaceOnUse">
<stop stop-color="#A497EB"/>
<stop offset="1" stop-color="#8487EB"/>
</linearGradient>
</defs>
</svg>
